<svg id="Layer_1" data-name="Layer 1" xmlns="http://www.w3.org/2000/svg" viewBox="0 0 1023.3 983.01">
  <path d="M1470.77,1100.27a235.16,235.16,0,0,0-124.17-173.5c109.16-34.09,180.08-143.66,162.34-260.19h0c-19.58-128.58-139.68-217-268.26-197.37L726.6,547.47C598,567.05,509.65,687.15,529.23,815.73h0A235.16,235.16,0,0,0,653.4,989.23c-109.16,34.09-180.08,143.66-162.34,260.19h0c19.58,128.58,139.68,216.95,268.26,197.37l514.08-78.26c128.58-19.58,216.95-139.68,197.37-268.26Z" transform="translate(-488.35 -466.49)"/>
</svg>
