<svg xmlns="http://www.w3.org/2000/svg" version="1.1" xmlns:xlink="http://www.w3.org/1999/xlink" xmlns:svgjs="http://svgjs.dev/svgjs" viewBox="0 0 800 800"><g stroke-width="1.5" stroke="url(#ccchaos-grad)" fill="none" stroke-linecap="round"><path d="M408.64 -32.14C416.38 -30.81 424.06 -30.2 431.67 -30.34 439.28 -31.36 446.81 -32.91 454.27 -34.8 461.72 -36.97 469.08 -38.94 476.34 -40.45 483.59 -41.46 490.72 -41.58 497.75 -40.73 504.74 -39.02 511.6 -36.31 518.32 -32.73 525 -28.58 531.53 -23.91 537.89 -18.97 544.2 -14.12 550.33 -9.44 556.28 -5.11 562.18 -1.41 567.9 1.7 573.42 4.23 581.56 6.7 596.97 9.28 604.31 10.37 611.6 12.06 626.05 19.18 633.39 25.02 638.48 29.77 643.67 35.18 649 41.16 654.58 47.5 660.35 54.17 666.31 61.04 672.57 67.9 679.05 74.71 685.72 81.37 692.66 87.72 699.76 93.77 706.99 99.5 714.35 104.78 721.72 109.72 729.04 114.35 736.3 118.58 743.34 122.59 750.08 126.46 756.52 130.09 762.49 133.71 767.9 137.39 774.95 142.95 784.72 155.37 787.43 162.44 788.86 170.17 789.26 187.69 788.99 197.39 789.1 204.16 789.46 211.17 790.2 218.39 791.62 225.76 793.63 233.29 796.27 240.95 799.72 248.69 803.8 256.53 808.44 264.42 813.68 272.35 819.23 280.32 824.93 288.29 830.71 296.28 836.22 304.27 841.26 312.23 845.76 320.19 849.41 328.13 852.05 336.03 853.75 343.93 854.29 351.8 853.66 359.62 852.12 367.44 849.6 375.21 846.25 382.94 842.5 390.67 838.37 398.35 834.12 405.98 830.22 413.61 826.73 421.08 823.84 428.41 821.87 435.73 820.71 442.9 820.38 449.9 821.04 456.89 822.4 463.71 824.31 470.36 826.79 476.99 829.44 483.44 832.03 489.7 834.56 495.96 836.61 502.03 837.99 507.92 838.75 513.82 838.58 519.55 837.41 525.13 835.39 530.74 832.37 536.24 828.41 541.64 823.75 547.14 818.37 552.59 812.42 558.05 806.18 563.67 799.69 569.37 793.13 575.17 786.73 581.23 780.54 587.48 774.66 593.94 769.3 600.72 764.39 607.77 759.97 615.09 756.18 622.74 752.86 630.64 749.96 638.79 747.58 647.15 745.48 655.65 743.57 664.21 741.94 672.77 740.3 681.2 738.58 689.39 736.84 697.26 734.85 704.68 732.51 711.51 728.46 720.47 717.53 733.28 710.58 737.05 705.44 738.75 699.85 739.83 693.85 740.45 687.56 741.01 680.94 741.49 674.02 742.13 666.93 743.33 659.64 745.09 652.18 747.6 644.66 751.12 637.04 755.57 629.38 760.97 621.73 767.34 614.08 774.44 606.45 782.07 598.88 790.04 591.36 797.96 583.9 805.5 576.52 812.41 569.2 818.32 561.94 822.95 554.77 826.27 547.64 828.06 540.55 828.34 533.54 827.43 526.55 825.38 519.57 822.52 512.64 819.45 505.72 816.4 498.77 813.79 491.87 812.22 484.93 811.81 477.95 812.77 471 815.35 463.99 819.3 456.93 824.43 449.88 830.51 442.77 836.98 435.58 843.3 428.41 849.1 421.16 853.75 413.84 856.82 406.52 858.2 399.14 857.6 391.68 855.05 384.23 851.02 376.8 845.72 369.4 839.7 362 833.66 354.64 827.98 347.32 823.15 340 819.7 332.74 817.69 325.53 817.2 318.33 818.33 311.19 820.66 304.13 823.83 297.09 827.63 290.12 831.38 283.24 834.6 276.38 837.09 269.62 838.29 262.96 837.98 256.32 836.21 249.79 832.81 243.38 827.92 236.98 821.89 230.7 814.9 224.54 807.32 218.4 799.61 212.37 792.04 206.46 784.94 200.56 778.69 194.76 773.36 189.07 769.07 180.57 764.93 163.95 762.27 155.8 762.51 147.63 762.84 131.42 760.15 123.37 756.17 117.94 752.35 112.55 747.52 107.2 741.76 101.78 735.26 96.42 728.03 91.13 720.23 85.79 712.06 80.54 703.62 75.39 695.07 70.24 686.57 65.22 678.21 60.34 670.09 55.5 662.33 50.82 654.95 46.32 647.96 41.88 641.46 37.63 635.36 33.59 629.63 29.61 624.35 25.83 619.34 22.24 614.56 17.03 607.89 7.52 595.04 3.17 588.51 -1.06 581.85 -8.97 567.37 -12.65 559.44 -15.1 553.97 -17.43 548.24 -19.62 542.26 -21.84 536.18 -23.91 529.86 -25.82 523.34 -27.73 516.73 -29.47 509.94 -31.03 502.99 -32.58 495.98 -33.94 488.83 -35.1 481.57 -36.25 474.28 -37.2 466.89 -37.96 459.43 -38.7 451.95 -39.25 444.42 -39.61 436.83 -39.95 429.23 -40.1 421.6 -40.06 413.93 -40.01 406.26 -39.77 398.65 -39.34 391.09 -38.91 383.53 -38.3 376.02 -37.5 368.56 -36.72 361.08 -35.76 353.64 -34.63 346.23 -33.53 338.79 -32.26 331.36 -30.84 323.93 -29.44 316.46 -27.88 308.98 -26.18 301.47 -24.48 293.89 -22.63 286.28 -20.62 278.62 -18.6 270.9 -16.4 263.11 -14.02 255.28 -11.61 247.39 -9.01 239.45 -6.21 231.48 -3.37 223.49 -0.32 215.5 2.9 207.54 6.18 199.62 9.65 191.79 13.28 184.08 16.94 176.52 20.74 169.16 24.69 162.06 28.61 155.2 32.65 148.66 36.79 142.51 40.87 136.67 45.03 131.26 49.27 126.29 55.54 119.52 68.32 108.34 74.83 103.65 81.37 99.12 94.95 89.72 102.06 84.31 106.86 80.13 111.83 75.58 116.95 70.63 122.13 65.16 127.48 59.33 133 53.2 138.59 46.77 144.36 40.25 150.29 33.77 156.29 27.4 162.45 21.36 168.76 15.83 175.14 10.8 181.65 6.5 188.29 3 194.97 0.18 201.77 -1.84 208.66 -3.12 215.59 -3.95 222.6 -4.31 229.69 -4.37 236.79 -4.52 243.96 -4.78 251.19 -5.34 258.42 -6.52 265.69 -8.27 273.02 -10.65 280.34 -13.8 287.7 -17.51 295.1 -21.63 302.5 -26.12 309.93 -30.62 317.4 -34.87 324.86 -38.78 332.36 -41.96 339.9 -44.24 347.43 -45.67 354.99 -46.03 362.6 -45.36 370.2 -43.97 377.84 -41.86 385.51 -39.28 393.18 -36.71 400.89 -34.25 408.63 -32.14" stroke-dasharray="2 2" transform="rotate(0, 400, 400)" opacity="1.00"></path><path d="M404.93 -9.96C412.23 -8.65 419.43 -7.99 426.54 -8.02 433.64 -8.87 440.65 -10.25 447.55 -11.98 454.44 -14.05 461.23 -16.01 467.89 -17.64 474.54 -18.91 481.07 -19.44 487.46 -19.12 493.84 -18.02 500.08 -15.98 506.18 -13.05 512.26 -9.49 518.2 -5.29 524 -0.65 529.78 4.1 535.42 8.9 540.92 13.57 546.42 17.8 551.79 21.61 557.05 24.92 564.92 28.61 580.34 32.9 587.99 34.13 595.8 35.25 611.84 39.52 620.18 43.31 625.98 46.59 631.91 50.55 637.99 55.16 644.28 60.27 650.72 65.91 657.29 72 664.05 78.36 670.92 84.96 677.86 91.7 684.9 98.41 691.94 105.07 698.92 111.6 705.85 117.87 712.61 123.9 719.13 129.67 725.43 135.07 731.36 140.19 736.85 145.06 744.25 151.74 755.51 163.97 759.27 169.81 761.82 175.55 764.14 187.7 764.41 194.31 764.73 201.32 766.59 216.86 768.77 225.37 771.03 231.26 773.84 237.39 777.19 243.71 781.21 250.16 785.71 256.78 790.59 263.55 795.88 270.41 801.29 277.39 806.68 284.47 812 291.6 816.95 298.8 821.35 306.05 825.2 313.34 828.2 320.66 830.26 327.98 831.47 335.33 831.64 342.67 830.79 349.99 829.17 357.33 826.7 364.63 823.52 371.9 820.02 379.18 816.2 386.41 812.26 393.59 808.64 400.77 805.35 407.82 802.57 414.72 800.58 421.62 799.28 428.39 798.7 435.01 799 441.64 799.93 448.13 801.39 454.5 803.43 460.88 805.69 467.14 808 473.3 810.37 479.48 812.42 485.58 813.99 491.61 815.12 497.7 815.5 503.75 815.06 509.79 813.91 515.92 811.85 522.08 808.91 528.28 805.29 534.64 800.91 541.08 795.88 547.64 790.43 554.39 784.57 561.28 778.44 568.35 772.26 575.61 766.07 583.05 759.98 590.66 754.19 598.44 748.68 606.36 743.51 614.39 738.83 622.47 734.55 630.58 730.68 638.63 727.31 646.59 724.29 654.35 721.57 661.84 719.23 669.01 717.06 675.75 714.98 681.97 712.12 690.23 705.81 702.56 702 706.58 697.6 709.34 686.49 712.55 679.74 713.84 674.84 715.1 669.56 716.72 663.94 718.86 658.09 721.79 651.95 725.46 645.55 729.91 638.99 735.26 632.23 741.35 625.31 748.06 618.3 755.33 611.18 762.87 603.97 770.43 596.74 777.83 589.46 784.73 582.17 790.86 574.88 796.09 567.6 800.14 560.33 802.87 553.1 804.41 545.89 804.64 538.7 803.67 531.56 801.91 524.45 799.44 517.36 796.59 510.32 793.92 503.29 791.59 496.28 789.92 489.3 789.41 482.33 790.04 475.36 791.94 468.42 795.24 461.46 799.66 454.5 804.97 447.55 810.96 440.59 817.1 433.6 822.94 426.63 828.18 419.62 832.28 412.6 834.9 405.57 835.99 398.52 835.3 391.44 832.87 384.36 829.11 377.35 824.2 370.39 818.58 363.43 812.87 356.54 807.38 349.71 802.53 342.89 798.83 336.13 796.34 329.45 795.18 322.78 795.51 316.19 797.01 309.68 799.43 303.17 802.65 296.75 806.09 290.43 809.34 284.11 812.24 277.89 814.24 271.76 815.06 265.64 814.71 259.61 812.9 253.68 809.66 247.75 805.22 241.92 799.62 236.18 793.11 230.43 786.08 224.76 778.73 219.18 771.37 213.57 764.38 208.04 757.9 202.58 752.12 197.08 747.29 191.63 743.36 186.24 740.32 178.1 737.58 161.91 735.79 153.86 735.6 145.73 735.09 129.57 730.59 121.57 725.99 116.22 721.94 110.95 717.07 105.76 711.43 100.57 705.18 95.48 698.33 90.52 690.99 85.6 683.32 80.82 675.39 76.2 667.3 71.64 659.2 67.27 651.13 63.08 643.19 58.96 635.46 55.04 627.96 51.32 620.73 47.66 613.83 44.19 607.22 40.91 600.9 37.67 594.91 34.6 589.16 31.69 583.62 27.39 575.8 19.41 560.92 15.68 553.63 11.98 546.44 4.99 531.58 1.74 523.79 -0.42 518.53 -2.45 513.09 -4.35 507.47 -6.25 501.82 -8 495.98 -9.57 489.96 -11.13 483.91 -12.5 477.69 -13.68 471.29 -14.83 464.88 -15.77 458.3 -16.51 451.58 -17.22 444.84 -17.72 437.97 -18.01 430.96 -18.27 423.94 -18.34 416.8 -18.21 409.54 -18.06 402.27 -17.73 394.98 -17.22 387.65 -16.73 380.32 -16.06 372.96 -15.25 365.58 -14.46 358.19 -13.52 350.77 -12.45 343.31 -11.42 335.85 -10.25 328.36 -8.94 320.83 -7.68 313.29 -6.28 305.72 -4.74 298.12 -3.22 290.52 -1.55 282.9 0.27 275.27 2.11 267.66 4.12 260.05 6.31 252.48 8.53 244.95 10.95 237.49 13.57 230.11 16.24 222.84 19.12 215.7 22.19 208.74 25.32 201.93 28.63 195.35 32.13 189.03 35.66 182.92 39.35 177.12 43.18 171.65 47.01 166.42 50.97 161.55 55.02 157.03 61.1 150.74 73.51 139.88 79.8 135.08 86.04 130.31 98.68 120.35 105.12 114.76 109.39 110.55 113.75 106.03 118.2 101.17 122.65 95.87 127.21 90.25 131.9 84.35 136.6 78.15 141.45 71.81 146.44 65.44 151.47 59.06 156.66 52.89 162.01 47.05 167.41 41.56 172.96 36.62 178.67 32.34 184.44 28.63 190.35 25.67 196.4 23.44 202.51 21.75 208.75 20.68 215.11 20.1 221.51 19.72 228.03 19.53 234.64 19.37 241.28 18.9 248.02 18.13 254.82 16.93 261.66 15.06 268.56 12.62 275.52 9.61 282.5 5.96 289.53 1.92 296.6 -2.34 303.68 -6.8 310.8 -11.1 317.95 -15.01 325.11 -18.47 332.3 -21.17 339.52 -22.97 346.73 -23.96 353.97 -23.97 361.23 -23.05 368.49 -21.52 375.77 -19.38 383.05 -16.84 390.34 -14.36 397.63 -11.99 404.92 -9.96" stroke-dasharray="3 5" transform="rotate(5.157894736842105, 400, 400)" opacity="0.95"></path><path d="M398.84 12.21C405.65 13.5 412.38 14.2 419.01 14.27 425.63 13.58 432.16 12.38 438.58 10.82 445 8.9 451.31 6.98 457.52 5.29 463.72 3.83 469.81 2.97 475.79 2.83 481.77 3.35 487.64 4.74 493.4 6.98 499.17 9.88 504.84 13.48 510.41 17.65 516 22.1 521.51 26.78 526.94 31.53 532.41 36.07 537.82 40.37 543.19 44.33 548.63 47.73 554.04 50.66 559.45 53.12 567.71 55.76 584.6 59.04 593.3 60.37 599.27 61.31 605.33 62.57 611.48 64.24 617.78 66.26 624.17 68.83 630.64 71.98 637.23 75.61 643.87 79.83 650.54 84.6 657.26 89.79 663.95 95.42 670.57 101.42 677.13 107.65 683.53 114.08 689.73 120.64 695.74 127.19 701.46 133.73 706.82 140.18 711.87 146.45 716.5 152.55 720.65 158.45 726.05 166.77 733.75 181.95 736.13 188.9 737.74 195.4 739.48 207.9 740.12 214.12 741.19 220.33 745.25 233.41 748.63 240.38 751.61 245.14 755.06 250.08 758.95 255.22 763.34 260.42 768.04 265.81 772.97 271.38 778.12 277.01 783.26 282.81 788.23 288.75 793.01 294.75 797.36 300.89 801.12 307.14 804.32 313.42 806.72 319.81 808.25 326.28 809.03 332.78 808.9 339.34 807.87 345.96 806.2 352.59 803.81 359.27 800.81 365.98 797.56 372.7 794.04 379.44 790.41 386.21 787.05 392.98 783.97 399.69 781.31 406.34 779.31 412.99 777.91 419.59 777.11 426.13 777.1 432.69 777.65 439.21 778.68 445.69 780.28 452.2 782.14 458.69 784.12 465.17 786.25 471.7 788.2 478.25 789.83 484.82 791.18 491.46 791.96 498.15 792.07 504.9 791.63 511.74 790.41 518.67 788.4 525.68 785.77 532.79 782.4 540 778.36 547.31 773.83 554.71 768.8 562.18 763.35 569.73 757.71 577.32 751.87 584.93 745.93 592.53 740.1 600.09 734.35 607.56 728.78 614.89 723.53 622.05 718.55 628.98 713.88 635.6 709.63 641.91 705.71 647.83 702.1 653.27 697.41 660.57 689.51 671.8 686.01 675.74 679.11 680.85 666.83 687.22 661.65 690.27 657.91 693.05 653.84 696.4 649.46 700.38 644.87 705.11 639.98 710.49 634.8 716.46 629.44 723.02 623.82 729.95 617.98 737.1 612 744.35 605.82 751.42 599.48 758.08 593.05 764.23 586.49 769.57 579.83 773.93 573.12 777.31 566.33 779.54 559.49 780.58 552.63 780.67 545.74 779.75 538.83 778.02 531.92 775.88 525.01 773.44 518.09 770.97 511.19 768.97 504.29 767.53 497.4 766.89 490.53 767.4 483.67 768.99 476.82 771.68 469.99 775.55 463.16 780.27 456.35 785.63 449.55 791.41 442.75 797.16 435.96 802.48 429.18 807.16 422.41 810.73 415.63 812.93 408.86 813.76 402.1 813 395.33 810.69 388.57 807.2 381.89 802.66 375.29 797.44 368.69 792.07 362.17 786.8 355.73 782.01 349.29 778.13 342.94 775.26 336.67 773.52 330.4 773.11 324.21 773.81 318.1 775.44 311.99 777.97 305.97 780.91 300.03 783.94 294.08 786.94 288.21 789.39 282.43 791.03 276.63 791.8 270.91 791.37 265.27 789.68 259.6 786.87 254 782.85 248.47 777.77 242.91 771.92 237.41 765.41 231.96 758.49 226.47 751.51 221.02 744.6 215.62 738 210.17 731.96 204.75 726.55 199.37 721.85 191.23 716.47 175.01 710.31 166.95 708.92 158.85 708.25 142.88 706.28 135.05 704.17 129.86 702.15 124.77 699.48 119.79 696.12 114.84 692.2 110.03 687.6 105.37 682.36 100.76 676.62 96.32 670.36 92.05 663.65 87.86 656.63 83.85 649.32 80.03 641.81 76.29 634.2 72.73 626.52 69.36 618.86 66.05 611.28 62.9 603.79 59.93 596.45 56.98 589.29 54.17 582.31 51.5 575.52 48.82 568.96 46.25 562.57 43.78 556.35 41.27 550.34 38.85 544.46 36.52 538.68 34.13 533.08 31.81 527.53 29.58 522.02 26.2 513.92 19.86 497.7 16.96 489.46 15.07 483.98 13.33 478.39 11.76 472.68 10.21 466.99 8.84 461.16 7.67 455.2 6.55 449.24 5.63 443.14 4.92 436.89 4.27 430.65 3.83 424.25 3.6 417.72 3.41 411.18 3.42 404.5 3.64 397.67 3.87 390.85 4.28 383.97 4.85 377.04 5.41 370.11 6.12 363.13 6.96 356.12 7.76 349.11 8.69 342.07 9.73 335.01 10.71 327.96 11.81 320.9 13.01 313.84 14.17 306.8 15.44 299.78 16.83 292.79 18.2 285.84 19.7 278.94 21.34 272.12 22.99 265.38 24.8 258.73 26.78 252.21 28.8 245.79 31.01 239.54 33.41 233.47 35.87 227.53 38.54 221.81 41.4 216.33 45.88 208.48 55.88 194.33 61.33 188.04 66.96 182.17 78.79 171.52 84.92 166.53 91.05 161.43 103.48 150.66 109.75 144.69 113.87 140.3 118.03 135.65 122.24 130.72 126.38 125.43 130.57 119.88 134.83 114.09 139.05 108.04 143.34 101.87 147.72 95.65 152.08 89.39 156.54 83.26 161.11 77.37 165.68 71.73 170.38 66.51 175.2 61.81 182.55 55.79 197.96 47.76 206.03 45.65 214.31 44.5 231.55 43.43 240.49 42.68 246.53 41.65 252.67 40.21 258.9 38.3 265.16 35.74 271.51 32.68 277.93 29.17 284.38 25.19 290.89 20.97 297.46 16.7 304.05 12.42 310.69 8.45 317.37 4.96 324.07 1.99 330.8 -0.2 337.55 -1.52 344.32 -2.09 351.11 -1.78 357.91 -0.65 364.72 0.98 371.54 3.13 378.36 5.61 385.19 7.99 392.01 10.26 398.83 12.21" stroke-dasharray="5 2" transform="rotate(10.31578947368421, 400, 400)" opacity="0.90"></path><path d="M393.3 34.39C399.66 35.66 405.95 36.39 412.16 36.56 418.38 36.03 424.52 35.01 430.58 33.64 436.64 31.87 442.63 30.05 448.54 28.35 457.38 26.22 474.73 25.54 483.26 27.49 488.95 29.69 494.59 32.61 500.19 36.16 505.82 40.11 511.43 44.46 517.02 49.04 522.66 53.61 528.29 58.14 533.94 62.51 539.65 66.5 545.39 70.14 551.15 73.4 557.01 76.11 562.9 78.42 568.85 80.36 574.89 81.84 580.98 83.09 587.12 84.2 593.35 85.11 599.63 86.07 605.93 87.2 612.3 88.43 618.67 90 625.02 91.97 631.39 94.26 637.69 97.06 643.9 100.36 650.04 104.08 656.03 108.3 661.82 112.99 667.46 118.03 672.84 123.47 677.92 129.23 682.76 135.19 687.24 141.37 691.33 147.68 695.12 154.04 698.49 160.43 701.44 166.8 704.08 173.06 706.31 179.23 708.14 185.28 710.39 193.99 713.33 210.33 714.37 217.98 715.58 225.22 719.02 239.08 721.63 245.84 725.29 252.46 735.19 265.9 741.35 272.81 745.9 277.43 750.62 282.18 755.42 287.06 760.29 291.94 765.01 296.96 769.48 302.12 773.68 307.29 777.4 312.61 780.53 318.06 784.05 326.33 786.26 343.52 784.91 352.43 783.23 358.41 780.93 364.5 778.13 370.7 775.13 376.9 771.89 383.21 768.55 389.62 765.45 396.02 762.58 402.46 760.04 408.92 758.07 415.38 756.59 421.87 755.62 428.38 755.33 434.91 755.54 441.47 756.18 448.07 757.36 454.69 758.82 461.35 760.44 468.06 762.28 474.8 764.04 481.58 765.61 488.43 767.04 495.3 768.05 502.22 768.56 509.19 768.66 516.19 768.12 523.22 766.91 530.28 765.17 537.34 762.75 544.41 759.69 551.45 756.14 558.45 752.03 565.38 747.45 572.23 742.56 578.96 737.34 585.54 731.89 591.92 726.36 598.12 720.76 604.05 715.16 609.68 709.71 615.05 704.38 620.05 699.23 624.66 692.05 630.89 679.44 640.79 674 644.52 665.02 650.2 653.15 658.18 649.26 661.67 645.26 666.28 636.26 678.82 631.14 686.83 627.54 692.87 623.67 699.27 619.56 705.94 615.3 712.8 610.8 719.65 606.06 726.31 601.19 732.69 596.1 738.56 590.81 743.74 585.41 748.21 579.83 751.76 574.1 754.31 568.28 755.98 562.32 756.65 556.26 756.38 550.14 755.46 543.92 753.9 537.63 751.88 531.31 749.82 524.93 747.77 518.5 745.98 512.07 744.85 505.59 744.39 499.1 744.77 492.6 746.22 486.08 748.63 479.56 751.95 473.04 756.2 466.51 761.07 459.99 766.34 453.47 771.83 446.95 777.13 440.43 781.92 433.93 786.04 427.42 789.11 420.93 790.92 414.44 791.52 407.95 790.7 401.47 788.51 395 785.28 388.6 781.1 382.3 776.28 375.99 771.26 369.76 766.25 363.61 761.56 357.46 757.59 351.38 754.42 345.39 752.2 339.39 751.14 333.46 751.08 327.61 751.93 321.74 753.7 315.95 756.01 310.22 758.62 304.48 761.44 298.8 764.03 293.18 766.12 284.75 768 268.1 765.43 259.88 760.71 254.37 756.34 248.9 751.12 243.47 745.22 238 738.92 232.56 732.33 227.15 725.65 221.7 719.14 216.27 712.9 210.89 707.06 205.46 701.81 200.06 697.15 194.71 693.1 186.65 688.43 170.79 682.62 163.03 680.93 155.36 679.75 140.61 676.75 133.57 674.33 126.77 670.97 114.07 660.93 108.21 654.23 104.43 649.18 100.84 643.66 97.42 637.75 94.07 631.52 90.88 624.99 87.86 618.23 84.88 611.29 82.04 604.22 79.35 597.06 76.65 589.86 74.07 582.65 71.6 575.48 69.1 568.35 66.69 561.31 64.36 554.35 61.96 547.5 59.64 540.76 57.39 534.13 55.06 527.61 52.8 521.2 50.61 514.88 48.36 508.66 46.19 502.52 44.12 496.44 42.01 490.44 40.01 484.48 38.14 478.53 36.26 472.64 34.54 466.74 32.98 460.83 31.46 454.95 30.12 449.03 28.98 443.07 27.9 437.12 27.02 431.11 26.37 425.03 25.77 418.95 25.39 412.8 25.23 406.57 25.12 400.34 25.21 394.02 25.49 387.63 25.8 381.23 26.28 374.82 26.91 368.42 27.53 362.02 28.27 355.63 29.14 349.25 29.96 342.88 30.89 336.54 31.9 330.24 32.86 323.96 33.9 317.73 35.04 311.57 36.11 305.44 37.28 299.4 38.55 293.46 40.45 284.69 44.88 267.92 47.46 259.99 50.25 252.37 56.83 238.2 60.65 231.68 64.77 225.44 74.07 213.87 79.21 208.43 84.57 202.99 95.99 192.06 101.98 186.35 105.98 182.28 110.06 178.07 114.2 173.69 118.29 169.01 122.42 164.12 126.6 159.02 130.71 153.62 134.85 148.04 139.03 142.28 143.13 136.32 147.27 130.28 151.45 124.21 155.57 118.12 159.73 112.14 163.94 106.36 168.11 100.77 172.34 95.52 176.64 90.7 183.1 84.31 196.44 75 203.35 72.1 210.39 70.24 225.05 68.42 232.68 67.83 240.46 66.75 256.61 62.34 264.97 58.67 270.59 55.51 276.31 51.96 282.12 48.12 287.95 43.97 293.85 39.76 299.83 35.65 305.82 31.68 311.88 28.13 317.99 25.13 324.12 22.68 330.29 20.99 336.51 20.13 342.74 19.93 349 20.53 355.29 21.83 361.59 23.54 367.91 25.69 374.24 28.08 380.58 30.36 386.93 32.52 393.29 34.39" stroke-dasharray="3 4" transform="rotate(15.473684210526315, 400, 400)" opacity="0.85"></path><path d="M391 56.57C396.95 57.81 402.87 58.57 408.75 58.83 414.63 58.45 420.47 57.62 426.27 56.44 432.08 54.86 437.85 53.17 443.59 51.52 449.33 49.89 455.05 48.6 460.74 47.78 472.17 47.45 483.54 49.9 494.87 55.08 506.34 62.09 517.86 70.62 529.43 79.69 541.21 88.02 553.09 95.35 565.05 101.33 577.15 105.45 589.24 108.5 601.18 111.02 613.02 113.05 624.45 115.81 635.24 119.79 645.46 124.86 654.69 131.69 662.69 140.21 669.78 149.93 675.48 160.9 679.8 172.72 683.41 184.88 686.01 197.24 687.9 209.51 690.09 221.39 692.41 232.91 695.31 244.04 699.64 254.58 705.12 264.83 711.81 274.9 719.97 284.55 728.81 294.23 737.76 304.07 746.57 313.7 754.09 323.65 759.6 333.98 762.31 341.75 763.46 357.82 761.93 366.15 760.26 371.73 758.08 377.44 755.47 383.27 752.71 389.1 749.75 395.06 746.7 401.14 743.85 407.22 741.18 413.35 738.77 419.54 736.85 425.72 735.32 431.96 734.22 438.24 733.7 444.52 733.6 450.85 733.9 457.21 734.68 463.57 735.74 469.97 736.99 476.39 740.18 489.21 742.98 502.06 744.68 514.83 745.26 527.41 743.69 539.71 739.8 551.51 734.16 562.83 726.48 573.35 717.24 582.83 707.27 591.53 696.71 599.01 686.07 605.2 676.03 610.76 666.56 615.34 657.8 619.25 650.15 623.51 643.18 628.02 636.71 633.31 631 640.28 625.37 648.77 619.58 658.91 613.95 670.72 607.78 683.46 600.96 696.32 593.9 708.56 586.04 718.95 577.43 726.52 568.47 731.2 558.8 732.49 548.52 730.79 537.99 727.84 526.97 724.37 515.57 721.91 504.05 722.39 492.24 725.96 480.25 732.66 474.23 737.12 468.18 741.99 462.11 747.05 456.02 752.17 449.92 756.98 443.8 761.23 437.67 764.81 431.53 767.41 425.38 768.87 419.23 769.26 413.07 768.4 406.9 766.33 400.73 763.36 394.63 759.52 388.59 755.08 382.55 750.43 376.57 745.7 370.66 741.17 364.74 737.18 358.88 733.82 353.08 731.22 347.27 729.6 341.52 728.86 335.83 728.96 324.4 731.72 313.16 736.17 302.11 740.65 290.96 744.17 279.97 744.7 269.12 741.56 258.15 735.16 247.31 725.53 236.62 713.75 225.83 701.29 215.21 689.06 204.82 678.03 194.42 669.11 184.34 662.2 174.64 657.08 165.1 653.82 156.05 651.27 147.58 648.69 139.39 646.08 131.84 642.28 124.96 636.96 118.33 630.44 112.31 622.2 106.87 612.42 101.48 601.58 96.51 589.65 91.91 577 87.1 563.91 82.52 550.56 78.17 537.18 73.52 523.83 69.12 510.64 65.05 497.69 60.87 484.91 57.18 472.33 54.11 459.95 52.63 453.8 51.34 447.68 50.25 441.59 49.23 435.52 48.42 429.46 47.82 423.42 47.3 417.38 46.98 411.35 46.88 405.33 46.84 399.31 47 393.28 47.35 387.26 47.72 381.24 48.25 375.3 48.93 369.43 49.99 360.66 52.58 343.57 54.06 335.26 55 329.77 56.01 324.39 57.1 319.12 59.06 308.65 61.36 298.7 64.05 289.31 66.66 280.02 69.83 271.29 73.62 263.11 77.61 254.89 82.36 247.05 87.85 239.45 93.63 231.45 100.13 223.35 107.26 214.96 114.53 205.74 122.28 195.96 130.39 185.55 138.41 174.32 146.65 162.69 155.06 150.95 163.21 139.27 171.49 128.3 179.89 118.56 188.04 110.12 196.37 103.56 204.9 99.04 213.29 95.85 221.97 94.1 230.96 93.18 239.92 91.77 249.25 89.71 258.94 86.4 268.66 81.07 278.77 74.29 289.21 66.57 299.71 58.31 310.53 50.95 321.63 45.54 330 43.02 347.06 42.55 355.72 44.4 361.52 46.16 367.35 48.27 373.23 50.57 379.11 52.74 385.03 54.79 390.99 56.57" stroke-dasharray="5 2" transform="rotate(20.63157894736842, 400, 400)" opacity="0.80"></path><path d="M393.04 78.75C404.25 80.59 415.45 80.69 426.6 79.21 437.78 76.15 448.95 72.99 460.11 70.72 471.32 69.61 482.55 70.85 493.81 74.58 505.14 80.2 516.52 87.66 527.9 96.22 539.34 104.77 550.75 112.96 562.03 120.28 573.25 126.03 584.19 130.62 594.7 134.26 604.89 136.82 614.41 139.3 623.1 142.18 631.17 145.38 638.2 149.78 644.11 155.55 649.35 162.37 653.53 170.61 656.76 180.08 659.78 190.35 662.32 201.42 664.67 212.99 667.69 224.76 671.16 236.64 675.37 248.46 680.91 260.05 687.4 271.45 694.75 282.64 703.08 293.51 711.63 304.23 719.87 314.86 727.62 325.26 733.95 335.7 738.32 346.25 740.91 356.69 741.08 367.33 738.92 378.23 735.4 389.1 730.48 400.27 724.84 411.76 719.9 423.25 715.77 434.78 712.89 446.31 711.97 457.81 712.39 469.25 713.81 480.54 716.34 491.71 718.79 502.61 720.56 513.09 721.69 523.29 721.16 532.91 718.74 541.79 714.83 550.24 708.99 557.84 701.5 564.52 693.03 570.83 683.57 576.37 673.56 581.26 663.62 586.3 653.78 591.22 644.29 596.38 635.55 602.56 627.35 609.61 619.67 617.8 612.78 627.5 606.2 638.34 599.79 650.06 593.8 662.35 587.66 674.39 581.23 685.39 574.85 694.86 567.98 701.92 560.56 706.09 552.99 707.87 544.82 707.11 536.08 704.53 527.16 701.84 517.7 699.6 507.79 698.96 497.75 701.27 487.31 706.29 476.56 713.73 465.75 723.07 454.67 732.51 443.39 740.41 432.09 745.77 420.61 747.13 408.99 744.15 397.38 738.05 385.89 729.68 374.56 720.82 363.22 713.53 352.01 708.6 340.95 706.56 329.87 707.81 318.9 711.02 308.06 714.96 297.18 718.91 286.41 720.96 275.79 720.24 265.12 716.81 254.6 710.18 244.27 700.89 233.96 690.03 223.88 678.22 214.12 666.42 204.47 655.61 195.2 646.1 186.4 638.13 177.82 632.04 169.77 627.25 162.31 623.32 155.11 620.3 148.49 617.19 142.48 613.52 136.61 609.53 131.24 604.38 126.33 597.99 121.36 590.75 116.68 582.26 112.27 572.72 107.6 562.49 103.09 551.5 98.77 539.98 94.17 528.14 89.81 516.05 85.78 503.87 81.69 491.61 78.1 479.39 75.15 467.3 72.4 455.22 70.42 443.29 69.29 431.54 68.46 419.8 68.44 408.24 69.2 396.87 70.07 385.51 71.5 374.6 73.36 364.16 75.02 353.71 76.97 343.73 79.16 334.21 81.04 324.67 83.2 315.56 85.66 306.85 87.98 298.02 90.78 289.48 94.12 281.14 97.6 272.48 101.76 263.82 106.62 255.01 111.77 245.64 117.64 235.94 124.16 225.83 130.91 215.12 138.2 204.05 145.93 192.76 153.7 181.3 161.76 170.09 170.06 159.49 178.19 149.61 186.48 140.98 194.88 133.92 203.05 128.16 211.34 124.07 219.75 121.49 227.97 119.52 236.37 118.17 244.98 116.87 253.46 114.47 262.21 111.06 271.23 106.33 280.21 99.89 289.49 92.48 299.08 84.71 308.66 76.99 318.55 70.57 328.73 66.25 338.91 63.98 349.38 64.36 360.11 67.06 370.83 70.73 381.81 74.97 393.03 78.75" stroke-dasharray="8 0" transform="rotate(25.789473684210524, 400, 400)" opacity="0.75"></path><path d="M398.44 100.93C409.03 102.76 419.66 103.07 430.31 101.95 440.97 99.29 451.66 96.35 462.35 93.94 473.07 92.25 483.8 92.44 494.5 94.8 505.21 98.92 515.86 105.02 526.38 112.59 536.84 120.7 547.08 129.1 557.01 137.2 566.72 144.28 575.97 150.42 584.63 155.59 592.89 159.48 600.42 162.76 607.1 165.79 613.29 168.43 618.61 171.56 623.05 175.44 627.18 179.86 630.64 185.42 633.6 192.14 636.74 199.66 639.81 208.24 643.05 217.68 647.12 227.68 651.76 238.26 657.1 249.19 663.54 260.32 670.64 271.58 678.22 282.86 686.33 294.09 694.27 305.25 701.59 316.3 708.22 327.25 713.39 338.12 716.7 348.91 718.47 359.63 718.17 370.34 715.91 381.04 712.58 391.72 708.09 402.43 702.99 413.16 698.47 423.89 694.56 434.38 691.64 444.6 690.35 454.78 690.18 464.63 690.92 474.08 692.77 483.43 694.74 492.29 696.37 500.59 697.74 508.73 697.91 516.26 696.61 523.15 694.17 529.93 690.03 536.14 684.31 541.89 677.55 547.79 669.6 553.51 660.77 559.26 651.63 565.68 642.17 572.55 632.64 580.09 623.48 588.72 614.57 598.21 606.01 608.53 598.07 619.67 590.46 631.16 583.14 642.55 576.32 653.49 569.6 663.27 562.86 671.3 556.37 677.51 549.68 681.33 542.69 682.72 535.75 682.53 528.41 680.81 520.64 678.35 512.81 676.65 504.53 676.03 495.81 677.24 487.02 681.14 477.81 687.25 468.23 695.06 458.6 704.03 448.63 712.61 438.37 719.46 428.09 723.92 417.53 724.83 406.74 721.97 395.95 716.42 385.19 708.79 374.49 700.5 363.79 693.3 353.14 687.85 342.59 684.75 332.03 684.57 321.56 686.4 311.2 689.4 300.85 693.14 290.62 695.94 280.55 696.93 270.51 695.98 260.68 692.26 251.09 685.89 241.61 677.57 232.42 667.52 223.62 656.49 214.98 645.38 206.77 634.6 199.05 624.62 191.55 615.96 184.56 608.51 178.11 602.16 171.84 597.1 166.07 592.68 160.78 588.53 155.52 584.85 150.64 580.83 146.08 576.21 141.37 571.35 136.86 565.59 132.52 558.93 127.9 551.77 123.42 543.74 119.1 534.95 114.55 525.77 110.25 516.01 106.31 505.82 102.35 495.43 98.92 484.77 96.12 473.98 93.56 463.11 91.76 452.2 90.78 441.33 90.11 430.44 90.21 419.62 91.06 408.93 92.01 398.23 93.5 387.89 95.39 377.91 97.09 367.91 99.05 358.22 101.2 348.82 103.05 339.33 105.1 330.04 107.4 320.89 109.51 311.54 112 302.2 114.93 292.8 117.93 283.07 121.53 273.15 125.75 263.01 130.23 252.5 135.38 241.79 141.19 230.92 147.25 219.93 153.91 209.05 161.07 198.51 168.36 188.39 176.04 179.05 184.03 170.79 191.98 163.49 200.15 157.56 208.47 153.07 216.64 149.48 224.93 147.01 233.33 145.35 241.55 143.58 249.89 141.73 258.36 139.35 266.68 135.63 275.18 130.82 283.86 124.91 292.45 117.75 301.27 110.15 310.33 102.75 319.33 95.86 328.6 90.52 338.13 87.29 347.63 85.94 357.42 86.9 367.47 89.8 377.51 93.38 387.83 97.38 398.43 100.93" stroke-dasharray="4 6" transform="rotate(30.94736842105263, 400, 400)" opacity="0.70"></path><path d="M404.59 123.11C414.56 124.91 424.55 125.4 434.52 124.64 444.49 122.41 454.45 119.78 464.35 117.37 474.25 115.31 484.06 114.68 493.75 115.83 503.38 118.49 512.83 123.06 522.01 129.27 531.06 136.39 539.75 144.31 548.01 152.51 556.02 160.28 563.5 167.57 570.36 174.15 576.9 179.61 582.78 184.32 587.97 188.43 595.05 193.32 606.48 203.41 611.53 209.95 615.28 215.01 619.22 220.98 623.49 227.83 628.57 235.23 634.18 243.42 640.32 252.24 647.25 261.45 654.52 271.12 661.91 281.1 669.47 291.26 676.56 301.59 682.83 311.98 688.32 322.43 692.38 332.87 694.77 343.24 695.85 353.63 695.19 363.92 692.89 374.1 689.79 384.28 685.73 394.34 681.13 404.24 677.03 414.14 673.36 423.65 670.45 432.73 668.87 441.8 668.21 450.43 668.34 458.6 669.52 466.75 670.94 474.45 672.25 481.7 673.6 488.97 674.14 495.86 673.62 502.44 672.3 509.2 669.59 515.82 665.5 522.42 660.46 529.49 654.19 536.79 646.9 544.49 639.06 552.89 630.59 561.84 621.73 571.37 612.87 581.55 603.95 592.12 595.11 602.86 586.62 613.59 578.33 623.86 570.27 633.24 562.63 641.55 555.16 648.27 547.81 653.08 540.78 656.29 533.73 657.6 526.61 657.23 519.65 656.18 512.5 654.53 505.1 652.98 497.75 652.74 490.1 653.87 482.12 656.77 474.13 661.93 465.8 668.71 457.13 676.54 448.44 684.92 439.42 692.54 430.1 698.36 420.76 701.99 411.13 702.52 401.23 699.79 391.33 694.77 381.41 687.86 371.51 680.19 361.62 673.21 351.76 667.46 341.97 663.52 332.2 662.06 322.51 662.49 312.95 664.3 303.44 667.31 294.07 670.15 284.92 672.05 275.84 672.85 267.01 671.55 258.47 667.99 250.07 662.56 242 655.11 234.34 646.11 226.83 636.24 219.75 625.8 213.13 615.31 206.66 605.31 200.63 595.95 195.06 587.38 189.55 579.91 184.43 573.24 179.66 567.24 174.82 562.09 170.23 557.22 165.86 552.39 161.27 547.89 156.81 543.06 152.48 537.77 147.88 532.41 143.41 526.43 139.11 519.81 134.64 512.98 130.45 505.53 126.64 497.52 122.87 489.33 119.64 480.68 117.05 471.64 114.72 462.52 113.12 453.1 112.3 443.46 111.78 433.79 112 423.96 112.91 413.99 113.93 404.01 115.45 394.15 117.36 384.39 119.09 374.62 121.05 364.91 123.19 355.26 125.03 345.53 127.04 335.78 129.22 325.99 131.18 316.07 133.44 306.04 136.05 295.91 138.64 285.64 141.73 275.27 145.35 264.87 149.16 254.46 153.58 244.16 158.6 234.12 163.88 224.39 169.76 215.2 176.17 206.77 182.77 199.02 189.84 192.27 197.28 186.66 204.79 181.85 212.6 178.12 220.63 175.38 228.62 172.95 236.77 171 245.06 169.2 253.23 166.74 261.52 163.76 269.92 160 278.19 154.94 286.59 148.98 295.11 142.3 303.54 134.9 312.12 127.58 320.88 120.9 329.56 115.06 338.45 110.87 347.54 108.7 356.59 108.17 365.87 109.6 375.38 112.6 384.87 116.06 394.61 119.79 404.58 123.11" stroke-dasharray="5 3" transform="rotate(36.10526315789473, 400, 400)" opacity="0.65"></path><path d="M408.52 145.29C417.81 147.05 427.03 147.7 436.15 147.27 445.27 145.49 454.28 143.23 463.15 140.97 471.98 138.75 480.63 137.54 489.05 137.69 497.4 139.04 505.45 142.09 513.16 146.74 520.74 152.48 527.91 159.33 534.62 166.9 541.16 174.59 547.2 182.31 552.71 189.76 558.07 196.48 562.93 202.63 567.32 208.17 573.71 214.95 585.49 226.23 591.51 231.79 596.07 235.56 600.9 239.86 606.08 244.75 611.92 249.92 618.13 255.76 624.64 262.24 631.62 269.06 638.65 276.45 645.5 284.32 652.24 292.44 658.34 300.93 663.51 309.69 667.9 318.59 670.96 327.67 672.55 336.83 673.07 346.06 672.14 355.31 669.89 364.53 667.03 373.76 663.39 382.93 659.28 391.99 655.58 401.05 652.17 409.78 649.31 418.18 647.54 426.58 646.48 434.67 646.07 442.46 646.62 450.3 647.46 457.89 648.35 465.3 649.47 472.85 650.11 480.33 650.02 487.8 649.46 495.55 647.84 503.45 645.1 511.57 641.59 520.11 636.95 528.97 631.3 538.17 625.03 547.75 617.97 557.6 610.31 567.58 602.4 577.6 594.15 587.42 585.71 596.74 577.36 605.47 568.99 613.21 560.69 619.66 552.64 624.95 544.7 628.68 536.86 630.81 529.3 631.9 521.8 631.78 514.32 630.81 507.04 629.93 499.71 629.17 492.29 629.05 484.99 630.45 477.52 633.22 469.87 637.49 462.27 643.49 454.44 650.54 446.38 658.07 438.32 665.68 430.02 672.29 421.48 677.12 412.93 680 404.14 680.19 395.12 677.61 386.11 673.1 377.09 666.9 368.11 659.88 359.15 653.25 350.23 647.38 341.41 642.85 332.62 640.32 323.94 639.44 315.42 639.94 306.96 641.87 298.69 644.17 290.66 646.21 282.71 647.92 275.04 648.28 267.67 646.98 260.42 644.24 253.5 639.61 246.96 633.27 240.52 625.73 234.45 617.03 228.76 607.6 223.14 597.9 217.86 588.12 212.92 578.56 207.95 569.52 203.24 561.01 198.76 553.06 194.14 545.87 189.68 539.17 185.36 532.85 180.81 527.1 176.35 521.49 172 515.87 167.42 510.52 162.99 504.95 158.76 499.07 154.43 493.24 150.41 486.99 146.8 480.3 143.29 473.57 140.32 466.39 137.97 458.77 135.89 451.1 134.51 443.02 133.86 434.56 133.49 426.09 133.8 417.25 134.77 408.09 135.83 398.92 137.37 389.65 139.26 380.29 141.01 370.93 142.98 361.48 145.11 351.95 146.96 342.4 148.95 332.78 151.07 323.1 152.95 313.42 155.05 303.71 157.41 294.05 159.69 284.47 162.36 275.03 165.46 265.84 168.66 256.91 172.39 248.4 176.64 240.46 181.11 232.99 186.13 226.26 191.68 220.38 197.44 215.09 203.68 210.67 210.35 207.11 217.16 203.92 224.33 201.33 231.79 199.17 239.3 196.78 247.04 194.32 254.97 191.56 262.87 187.89 270.92 183.56 279.1 178.48 287.21 172.39 295.44 165.75 303.76 158.83 312.03 151.71 320.41 145.08 328.9 139.4 337.34 134.73 345.92 131.7 354.62 130.5 363.3 130.67 372.14 132.44 381.12 135.47 390.09 138.75 399.23 142.21 408.51 145.29" stroke-dasharray="5 8" transform="rotate(41.26315789473684, 400, 400)" opacity="0.60"></path><path d="M408.34 167.47C416.85 169.17 425.21 169.96 433.39 169.83 441.56 168.49 449.55 166.65 457.31 164.66 465.03 162.46 472.51 160.92 479.7 160.36 486.83 160.63 493.64 162.31 500.09 165.41 506.47 169.56 512.47 174.95 518.08 181.32 523.62 188.18 528.79 195.51 533.59 203.01 538.39 210.28 542.89 217.32 547.15 224 551.54 230.03 555.82 235.63 560.04 240.82 564.6 245.39 569.24 249.72 574.04 253.94 579.32 257.81 584.83 261.8 590.58 266.01 596.79 270.15 603.16 274.68 609.6 279.63 616.22 284.68 622.66 290.21 628.7 296.2 634.47 302.33 639.49 308.89 643.59 315.83 646.95 322.88 649.13 330.24 650.06 337.87 650.15 345.56 649.06 353.45 646.9 361.49 644.31 369.55 641.07 377.73 637.42 386 634.11 394.27 630.98 402.43 628.22 410.48 626.33 418.55 624.97 426.53 624.12 434.45 624.1 442.44 624.38 450.42 624.78 458.43 625.54 466.58 626.04 474.83 626.09 483.21 625.95 491.78 625.05 500.53 623.3 509.44 621.02 518.51 617.8 527.69 613.68 536.9 608.99 546.08 603.5 555.1 597.31 563.76 590.76 572.03 583.7 579.65 576.25 586.39 568.68 592.35 560.9 597.19 552.99 600.8 545.15 603.52 537.27 605.08 529.41 605.59 521.7 605.73 514.01 605.35 506.36 604.8 498.87 604.87 491.37 605.49 483.87 606.98 476.49 609.92 469.04 614.02 461.54 619.24 454.09 625.64 446.54 632.58 438.88 639.54 431.23 646.24 423.45 651.83 415.54 655.73 407.62 657.94 399.56 657.85 391.37 655.43 383.18 651.41 375.05 645.9 367.01 639.56 358.98 633.36 351.05 627.58 343.27 622.69 335.5 619.34 327.9 617.33 320.48 616.57 313.11 617.23 305.96 618.57 299.05 620.15 292.2 621.96 285.61 623.11 279.32 623.25 273.09 622.53 267.15 620.34 261.52 616.66 255.93 611.84 250.62 605.68 245.6 598.42 240.55 590.45 235.75 581.84 231.18 572.87 226.5 563.82 221.99 554.8 217.63 545.95 213.09 537.46 208.65 529.3 204.31 521.48 199.76 514.13 195.3 507.06 190.97 500.21 186.47 493.73 182.15 487.33 178.06 480.93 173.95 474.73 170.18 468.4 166.84 461.89 163.64 455.46 160.97 448.76 158.9 441.76 157.09 434.78 155.93 427.47 155.45 419.82 155.23 412.18 155.62 404.18 156.62 395.86 157.71 387.53 159.24 379.06 161.11 370.51 162.85 361.96 164.81 353.34 166.93 344.69 168.8 336.07 170.78 327.47 172.88 318.94 174.73 310.52 176.74 302.24 178.94 294.2 181.01 286.36 183.37 278.86 186.06 271.81 188.77 265.07 191.89 258.87 195.45 253.31 199.16 248.1 203.35 243.55 208 239.66 212.85 236.02 218.16 232.91 223.9 230.24 229.81 227.47 236.1 224.85 242.73 222.19 249.47 218.96 256.5 215.38 263.76 211.31 271.08 206.39 278.59 200.9 286.25 194.91 293.93 188.31 301.73 181.56 309.65 174.96 317.55 168.56 325.55 162.95 333.63 158.45 341.7 154.99 349.85 153.04 358.08 152.69 366.31 153.42 374.61 155.43 382.99 158.4 391.37 161.47 399.82 164.63 408.33 167.47" stroke-dasharray="7 8" transform="rotate(46.421052631578945, 400, 400)" opacity="0.55"></path><path d="M404.12 189.65C411.79 191.28 419.26 192.18 426.51 192.32 433.76 191.41 440.78 190 447.56 188.36 454.32 186.37 460.81 184.73 467.04 183.73 473.23 183.23 479.14 183.79 484.76 185.51 490.37 188.11 495.69 191.88 500.75 196.69 505.82 202.18 510.67 208.4 515.31 215.15 520.06 222.06 524.67 229.13 529.2 236.19 533.93 242.97 538.67 249.53 543.45 255.82 548.55 261.63 553.75 267.16 559.09 272.45 564.77 277.3 570.58 282.03 576.47 286.7 582.6 291.1 588.7 295.59 594.67 300.23 600.61 304.76 606.19 309.54 611.27 314.61 615.98 319.66 619.95 325.05 623.04 330.77 625.49 336.51 626.94 342.58 627.35 348.98 627.12 355.39 625.95 362.11 623.93 369.12 621.62 376.13 618.77 383.41 615.57 390.96 612.63 398.51 609.79 406.14 607.18 413.83 605.23 421.55 603.66 429.34 602.47 437.22 601.97 445.13 601.73 453.14 601.65 461.24 601.97 469.39 602.18 477.62 602.15 485.92 602.12 494.22 601.59 502.54 600.47 510.8 599.05 518.95 596.9 526.92 594.03 534.59 590.74 541.95 586.72 548.83 582.03 555.09 576.98 560.82 571.35 565.76 565.25 569.8 558.92 573.23 552.24 575.74 545.28 577.37 538.24 578.59 531.03 579.17 523.7 579.29 516.4 579.57 509.03 579.87 501.64 580.43 494.32 581.86 486.98 583.99 479.64 586.95 472.37 591.1 465.09 596.1 457.8 601.79 450.56 608.17 443.28 614.66 435.98 620.84 428.7 626.57 421.38 631.15 414.01 634.2 406.65 635.8 399.23 635.49 391.78 633.25 384.32 629.7 377 624.85 369.83 619.21 362.66 613.53 355.64 607.99 348.8 602.98 341.97 599.09 335.32 596.19 328.89 594.31 322.47 593.73 316.26 593.9 310.29 594.57 301.47 596.41 285.02 597.81 277.39 595.95 272.34 593.54 267.5 589.95 262.86 585.25 258.13 579.77 253.56 573.38 249.14 566.27 244.58 558.72 240.13 550.74 235.78 542.51 231.26 534.22 226.82 525.89 222.48 517.64 217.97 509.55 213.59 501.62 209.35 493.87 205.02 486.35 200.91 478.99 197.07 471.76 193.27 464.72 189.83 457.74 186.81 450.79 183.97 443.95 181.64 437.06 179.86 430.09 178.34 423.17 177.41 416.12 177.09 408.93 177 401.74 177.47 394.39 178.47 386.86 179.57 379.34 181.07 371.83 182.88 364.37 184.6 356.92 186.54 349.54 188.63 342.29 190.5 335.09 192.49 328.05 194.58 321.25 196.43 314.55 198.41 308.14 200.52 302.09 203.56 293.45 210.71 278.62 215.04 272.49 219.83 266.96 231.57 257.47 238.54 253 243.46 249.66 248.76 246.15 254.4 242.37 260.17 237.98 266.25 233.18 272.6 227.97 279.03 222.16 285.7 216.04 292.56 209.76 299.48 203.28 306.56 197.01 313.76 191.21 321 185.88 328.34 181.48 335.77 178.22 343.21 175.91 350.73 174.93 358.3 175.27 365.87 176.41 373.49 178.54 381.13 181.38 388.78 184.2 396.45 187.06 404.11 189.65" stroke-dasharray="9 8" transform="rotate(51.57894736842105, 400, 400)" opacity="0.50"></path><path d="M397.92 211.83C404.72 213.38 411.34 214.35 417.77 214.73 424.19 214.2 430.41 213.24 436.42 212.01 445.33 209.58 462.11 206.59 470 207.12 475.23 208.38 480.29 210.63 485.19 213.82 490.17 217.68 495.04 222.36 499.82 227.73 504.74 233.5 509.63 239.72 514.5 246.24 519.58 252.82 524.68 259.48 529.84 266.12 535.21 272.56 540.65 278.88 546.13 285.04 551.79 290.89 557.45 296.59 563.04 302.16 568.69 307.44 574.15 312.65 579.34 317.83 584.38 322.81 588.98 327.85 593.02 332.98 598.18 340.58 604 356.62 604.45 365.17 604.02 370.94 602.84 376.97 601 383.27 598.96 389.56 596.49 396.14 593.72 402.99 591.14 409.84 588.59 416.8 586.16 423.86 584.23 430.92 582.54 438.07 581.11 445.28 580.24 452.48 579.56 459.72 579.04 466.95 578.9 474.14 578.74 481.27 578.47 488.3 578.33 495.21 577.88 501.92 577.06 508.36 575.4 517.5 569.04 533.05 564.25 539.11 558.47 543.96 544.09 550.04 535.74 551.59 529.91 552.51 523.8 553.24 517.49 553.96 511.1 555.16 504.55 556.66 497.9 558.61 491.24 561.4 484.5 564.82 477.71 568.88 470.94 573.78 464.13 579.16 457.32 584.85 450.52 590.83 443.71 596.62 436.9 601.9 430.11 606.61 423.3 610.24 416.51 612.52 409.72 613.61 402.93 613.13 396.16 611.07 389.38 607.97 382.77 603.76 376.34 598.81 369.91 593.72 363.65 588.56 357.58 583.65 351.5 579.49 345.61 575.99 339.92 573.25 331.45 571.06 315.46 570.72 307.92 571.47 300.49 572.18 286.34 570.24 279.56 566.94 274.98 563.86 270.5 559.92 266.12 555.2 261.62 549.95 257.19 544.06 252.86 537.66 248.4 530.94 244.03 523.88 239.77 516.59 235.42 509.19 231.22 501.7 227.2 494.19 223.16 486.69 219.37 479.24 215.88 471.86 212.46 464.56 209.42 457.33 206.79 450.19 204.34 443.12 202.36 436.11 200.9 429.17 199.67 422.27 198.96 415.39 198.79 408.56 198.81 401.74 199.33 394.93 200.33 388.15 201.41 381.38 202.85 374.79 204.59 368.4 206.26 362.03 208.14 355.87 210.18 349.96 213.04 341.26 218.97 325.38 222.03 318.26 224.96 311.54 231.51 299.64 235.28 294.32 239.3 288.98 248.96 278.24 254.64 272.42 258.64 268.06 262.97 263.45 267.61 258.58 272.35 253.24 277.4 247.65 282.71 241.87 288.11 235.81 293.75 229.75 299.61 223.85 305.54 218.07 311.65 212.75 317.92 208.1 324.23 204.03 330.67 200.9 337.22 198.82 343.79 197.55 350.46 197.36 357.17 198.21 363.9 199.61 370.68 201.75 377.48 204.4 384.29 206.94 391.1 209.49 397.91 211.83" stroke-dasharray="2 5" transform="rotate(56.73684210526316, 400, 400)" opacity="0.45"></path><path d="M392.71 234.01C401.62 235.96 418.77 236.6 427 235.52 437.92 232.69 448.35 230.52 458.3 230.12 468.46 231.14 478.35 235.26 488.06 242.25 498.22 251.03 508.41 261.82 518.57 273.77 529.19 285.96 539.63 298.33 549.5 310.52 559.12 322.12 567.44 333.47 573.85 344.67 578.94 355.41 581.53 366.34 581.42 377.59 580.87 383.17 579.75 388.88 578.11 394.72 576.35 400.55 574.24 406.53 571.86 412.66 569.64 418.79 567.38 424.93 565.16 431.04 563.31 437.15 561.59 443.22 560.02 449.22 558.15 461.12 556.7 472.53 555.3 483.04 554.64 493.05 553.07 501.72 550.24 508.68 546.95 514.89 541.9 519.39 535.19 522.33 527.75 525.46 518.82 528.2 508.77 531.39 498.3 536.75 487.04 543.76 475.3 552.44 463.47 563 451.33 573.62 439.1 582.61 432.99 586.33 426.87 589.08 420.74 590.69 414.62 591.35 408.49 590.75 402.39 588.89 396.28 586.21 390.33 582.62 384.54 578.35 378.74 573.89 373.11 569.23 367.63 564.62 356.64 556.89 346.25 551.05 336.49 547.36 326.57 546.46 317.16 546.36 308.24 545.94 299.01 545.47 290.14 542.89 281.63 537.93 272.76 531.47 264.24 522.68 256.25 512.14 248.13 500.67 240.8 488.22 234.6 475.34 228.81 462.27 224.53 449.16 222.04 436.29 221.08 429.86 220.57 423.5 220.54 417.23 220.66 410.96 221.21 404.79 222.18 398.72 223.91 389.74 228.72 373.03 231.58 365.31 235.08 355.16 239.04 345.97 243.32 337.69 246.96 329.16 251.12 321.2 255.87 313.53 260.39 305.01 265.83 296.19 272.21 286.82 278.75 276.25 286.37 265.17 294.96 254.05 303.8 242.98 313.54 233.31 323.98 226.1 334.58 221.12 345.76 219.59 357.29 221.48 363.08 223 368.94 225.04 374.85 227.44 380.77 229.68 386.73 231.93 392.7 234.01" stroke-dasharray="9 0" transform="rotate(61.89473684210526, 400, 400)" opacity="0.40"></path><path d="M391.02 256.19C401.44 258.28 411.65 259.11 421.57 258.82 431.54 256.86 441.3 255.06 450.85 254.2 460.57 253.87 470.19 255.68 479.68 259.74 489.43 265.24 499.09 272.82 508.5 281.95 518 291.87 527 302.66 535.14 313.83 542.82 325.05 549.15 336.32 553.73 347.47 557.27 358.45 558.81 369.37 558.28 380.18 556.95 390.92 554.07 401.69 550.01 412.41 546.4 423.14 542.68 433.31 539.17 442.76 536.89 452.12 534.82 460.61 532.84 468.03 530.74 478.22 522.98 492.79 516.16 498.2 510.79 502.5 504.16 507.17 496.47 512.63 488.43 519.83 479.5 528.1 469.93 537.12 460.21 546.86 450 555.86 439.51 562.91 429 567.91 418.27 569.31 407.46 566.71 396.65 561.66 386.26 554.21 376.34 545.77 366.38 538.23 356.82 531.65 347.69 526.48 338.43 523.56 329.5 521.67 320.93 520.2 312.15 519.57 303.66 518.07 295.53 515.28 287.24 511.91 279.37 506.78 272.12 500.06 264.94 492.58 258.6 483.8 253.38 474.11 248.6 464.07 245.18 453.49 243.3 442.72 242.03 431.87 242.27 420.99 244.04 410.28 246.03 399.57 249.06 389.52 252.81 380.14 256.2 370.66 260.06 361.67 264.26 353.06 267.91 344.1 271.97 335.21 276.45 326.23 280.6 316.61 285.4 306.7 290.86 296.56 296.28 286.01 302.52 275.65 309.54 266.05 316.64 257.21 324.54 250.15 333.1 245.52 341.75 242.73 351 242.62 360.72 245.02 370.46 248.11 380.6 252.14 391.02 256.19" stroke-dasharray="6 8" transform="rotate(67.05263157894737, 400, 400)" opacity="0.35"></path><path d="M393.67 278.37C402.65 280.33 411.63 281.49 420.51 281.85 429.42 280.79 438.3 279.65 447.06 278.9 455.9 278.08 464.67 278.54 473.25 280.49 481.88 283.28 490.28 287.76 498.23 293.71 506.04 300.45 513.19 308.35 519.41 317.01 525.14 326.06 529.65 335.54 532.7 345.18 535.03 354.91 535.83 364.66 535.09 374.26 533.88 383.86 531.5 393.3 528.15 402.43 525.13 411.56 521.84 419.93 518.54 427.5 516.06 435.05 513.63 441.78 511.2 447.69 508.4 456.27 500.99 471.12 495.56 478.53 491.53 484.41 486.58 490.77 480.75 497.7 474.73 505.65 467.9 513.98 460.39 522.26 452.77 530.49 444.57 537.59 435.93 542.76 427.26 546.24 418.23 546.9 408.93 544.53 399.64 540.38 390.53 534.24 381.68 527.03 372.81 520.13 364.16 513.47 355.78 507.54 347.34 503.13 339.11 499.54 331.18 496.55 323.17 494.64 315.44 492.65 308.11 490.2 300.78 487.92 293.93 484.67 287.73 480.35 281.72 475.75 276.54 470.02 272.38 463.33 268.62 456.39 266.02 448.64 264.71 440.3 263.85 431.87 264.24 422.99 265.89 413.79 267.72 404.59 270.46 395.5 273.87 386.58 277.05 377.59 280.72 368.64 284.73 359.72 288.34 350.59 292.31 341.37 296.6 332.08 300.56 322.59 304.98 313.12 309.87 303.92 314.59 294.91 319.91 286.62 325.79 279.51 331.65 273.34 338.13 268.91 345.18 266.54 352.24 265.42 359.87 266.25 367.98 268.78 376.1 271.54 384.68 274.93 393.67 278.37" stroke-dasharray="3 2" transform="rotate(72.21052631578947, 400, 400)" opacity="0.30"></path><path d="M399.37 300.55C406.95 302.34 414.58 303.67 422.18 304.53 429.8 304.3 437.39 303.93 444.86 303.68 452.33 303.04 459.66 303.06 466.72 303.93 473.72 305.07 480.36 307.33 486.48 310.69 492.39 314.53 497.62 319.4 502 325.12 506 331.2 509 337.92 510.89 345.07 512.33 352.39 512.66 359.97 511.88 367.62 510.87 375.31 508.97 383 506.29 390.54 503.84 398.09 501.04 405.12 498.07 411.63 495.63 418.17 493.07 424.26 490.44 429.94 488.3 435.79 485.93 441.41 483.29 446.9 480.91 452.78 478.06 458.75 474.7 464.9 471.39 471.61 467.45 478.57 462.9 485.68 458.29 493.14 453.05 500.43 447.23 507.18 441.35 513.51 434.93 518.64 428.04 522.11 421.13 524.32 413.78 524.44 406.09 522.35 398.39 519.04 390.71 514.16 383.15 508.29 375.58 502.37 368.11 496.25 360.82 490.32 353.53 485.21 346.41 480.54 339.56 476.3 332.71 472.95 326.17 469.77 320.04 466.58 314 463.86 308.45 460.78 303.53 457.18 296.83 451.59 288.03 436.79 286.29 427.57 285.78 421.17 286.26 414.13 287.75 406.5 289.37 398.87 291.76 391.02 294.76 383.06 297.63 375.09 300.97 366.98 304.67 358.84 308.11 350.69 311.88 342.53 315.93 334.54 319.73 326.67 323.88 319.13 328.35 312.2 332.64 305.7 337.35 300.11 342.46 295.7 347.47 292.07 352.95 289.82 358.86 289.09 364.74 289.07 371.08 290.33 377.84 292.68 384.59 294.99 391.78 297.72 399.37 300.55" stroke-dasharray="6 8" transform="rotate(77.36842105263158, 400, 400)" opacity="0.25"></path><path d="M405.37 322.73C417.66 325.04 429.96 326.68 441.61 327.95 453.14 327.49 463.71 328.77 472.41 332.44 480.46 336.64 486.05 343.73 488.46 353.03 489.98 362.75 488.59 374.02 484.44 386.05 480.83 398.08 475.98 409.74 470.55 420.9 466.33 432.54 461.14 444.43 454.89 456.39 449.07 469.04 441.54 481.23 432.43 491.24 423.29 499.35 412.46 502.79 400.3 500.17 388.14 494.5 375.88 485.09 364.17 474.39 352.56 464.99 341.65 456.01 332.22 447.63 323.2 440.84 316.06 433.39 311.59 424.77 307.95 416.45 307.17 406.21 309.6 394.11 312.39 382.01 317.49 369.24 324.04 356.71 330.04 344.53 337.31 333.31 345.48 324.42 353.14 316.98 362.06 312.93 372.05 312.95 381.88 314.06 393.07 317.73 405.37 322.73" stroke-dasharray="6 5" transform="rotate(82.52631578947368, 400, 400)" opacity="0.20"></path><path d="M408.78 344.91C418.07 346.98 427.02 349.09 435.18 351.19 443.24 351.99 450.29 353.66 455.8 356.52 460.96 359.15 464.36 363.53 465.63 369.58 466.57 375.69 465.55 383.41 462.58 392.47 459.91 401.54 456.02 411.11 451.42 420.78 447.43 430.57 442.61 440.54 437.09 450.08 431.92 459.44 425.71 467.75 418.58 473.91 411.51 478.67 403.36 480.26 394.37 477.99 385.36 474.02 376.4 467.3 367.96 459.18 359.63 451.25 351.97 442.87 345.55 434.6 339.43 427.09 334.76 419.37 332.03 411.43 329.74 403.76 329.47 395.36 331.46 386.33 333.67 377.31 337.66 368.52 342.86 360.56 347.85 352.86 353.93 346.46 360.75 342.04 367.3 338.29 374.72 336.79 382.77 337.69 390.73 338.72 399.48 341.29 408.78 344.91" stroke-dasharray="1 3" transform="rotate(87.6842105263158, 400, 400)" opacity="0.15"></path><path d="M407.94 367.09C420.31 369.48 430.69 373.69 437.06 379.49 442.97 384.09 444.54 392.59 440.73 404.79 437.42 416.98 430.43 430.64 421.74 442.2 413.69 452.58 403.06 458.35 391.15 455.81 379.23 450.31 368.31 438.98 360.72 426.36 353.66 414.31 350.59 401.31 353.31 389.25 356.44 377.19 364.19 368.3 374.06 364.34 383.65 360.83 395.57 361.92 407.94 367.09" stroke-dasharray="4 6" transform="rotate(92.84210526315789, 400, 400)" opacity="0.10"></path></g><defs><linearGradient x1="50%" y1="0%" x2="50%" y2="100%" id="ccchaos-grad"><stop stop-color="hsl(206, 75%, 49%)" stop-opacity="1" offset="0%"></stop><stop stop-color="hsl(331, 90%, 56%)" stop-opacity="1" offset="100%"></stop></linearGradient></defs></svg>