<svg xmlns="http://www.w3.org/2000/svg" version="1.1" xmlns:xlink="http://www.w3.org/1999/xlink" xmlns:svgjs="http://svgjs.dev/svgjs" width="1366" height="720" preserveAspectRatio="none" viewBox="0 0 1366 720"><g mask="url(&quot;#SvgjsMask1058&quot;)" fill="none"><path d="M160.54 0C160.54 41.58 48.07 144.88 0 144.88C-32.2 144.88 -38.08 34.36 0 0C42.19 -38.08 160.54 -30.86 160.54 0" stroke="rgba(51, 121, 194, 0.58)" stroke-width="2"></path><path d="M225.49 180C254.62 95.86 216.49 58.23 260 0C283.74 -31.77 310 0 360 0C387.27 0 389.65 -9.39 414.55 0C479.65 24.55 483.9 67.87 540 67.87C574.6 67.87 558.61 14.08 595.95 0C648.61 -19.86 657.97 0 720 0C810 0 810 0 900 0C976.95 0 989.76 -20.05 1053.91 0C1079.76 8.08 1067.59 56.25 1080 56.25C1092.17 56.25 1077.95 7.85 1103.08 0C1167.95 -20.27 1181.54 0 1260 0C1350 0 1395 -45 1440 0C1485 45 1440 90 1440 180C1440 270 1440 270 1440 360C1440 450 1440 450 1440 540C1440 630 1481.31 671.31 1440 720C1404.95 761.31 1359.23 730.74 1287.27 720C1269.23 717.31 1274.89 693.13 1260 693.13C1241.26 693.13 1243.05 716.56 1220 720C1153.05 729.99 1150 720 1080 720C992.5 720 992.15 721.34 905 720C902.15 719.96 902.84 717.44 900 717.23C810.34 710.52 807.05 704.89 720 706.15C711.33 706.28 717.23 719.33 708.57 720C627.23 726.26 624.29 720 540 720C459.54 720 411.26 762.28 379.09 720C342.78 672.28 362.79 614.77 403.04 540C443.24 465.33 473.29 482.43 540 421.13C571.23 392.43 598.91 390.16 598.91 360C598.91 330.67 576.77 304.04 540 302.14C457.32 297.87 448.18 321.41 360 347.67C351.04 350.34 346.94 350.89 345.71 360C333.92 447.06 371.07 463.77 333.95 540C288.22 633.91 258.58 621.96 180 700.27C168.27 711.96 169.34 718.25 153.33 720C79.34 728.11 35.27 761.4 0 720C-41.4 671.4 0 630 0 540C0 462.86 -10.68 458.34 0 385.71C2.55 368.34 12.48 372.02 26.47 360C102.48 294.72 105.81 298.21 180 231.11C205.32 208.21 214.62 211.41 225.49 180" stroke="rgba(51, 121, 194, 0.58)" stroke-width="2"></path><path d="M99.73 0C99.73 25.83 29.86 90 0 90C-20.01 90 -23.65 21.35 0 0C26.21 -23.65 99.73 -19.17 99.73 0" stroke="rgba(51, 121, 194, 0.58)" stroke-width="2"></path><path d="M274.95 180C274.95 115.59 302.04 54.94 360 46.55C434.56 35.76 461.97 153.88 540 141.64C610.35 130.6 589.82 52.67 656.76 0C679.82 -18.15 688.38 0 720 0C810 0 810 0 900 0C944.35 0 963.56 -28.28 988.7 0C1043.56 61.72 1019.62 93.56 1060 180C1065.27 191.28 1071.06 195.43 1080 195.43C1086.81 195.43 1087.83 188.86 1091.49 180C1128.21 91.15 1105.14 59.43 1160.77 0C1189.39 -30.57 1210.39 0 1260 0C1350 0 1395 -45 1440 0C1485 45 1440 90 1440 180C1440 270 1440 270 1440 360C1440 432 1442.18 432.16 1440 504C1439.45 522.16 1434.55 522.87 1434.55 540C1434.55 543.69 1439.88 541.76 1440 545.63C1442.61 631.76 1468.47 661.29 1440 720C1426.2 748.47 1390.27 738.19 1355.45 720C1300.27 691.17 1312.12 625.97 1260 625.97C1194.4 625.97 1192.75 682 1120 720C1102.75 729.01 1100 720 1080 720C1055 720 1052.66 729.06 1030 720C962.66 693.06 969.62 670.55 900 648C814.62 620.36 796.67 598.62 720 619.62C665.24 634.62 688.68 691.26 637.14 720C598.68 741.45 588.57 720 540 720C493.63 720 453.74 749.75 447.27 720C434.17 659.75 464.53 623.85 500.87 540C510.9 516.87 521.7 524.35 540 506.04C611.63 434.35 680.73 432.05 680.73 360C680.73 289.93 621.45 240.57 540 221.79C461.08 203.59 437.45 298.24 360 286.03C304.92 277.35 274.95 235.33 274.95 180" stroke="rgba(51, 121, 194, 0.58)" stroke-width="2"></path><path d="M92.65 360C134.85 321.71 135.64 286.67 180 286.67C226.46 286.67 255.39 309.47 274.29 360C302.76 436.14 301.53 460.83 274.74 540C254.39 600.15 231.17 593.64 180 638.63C128.8 683.64 129.54 693.08 70 720C39.54 733.77 9.8 745.2 0 720C-25.2 655.2 0 630 0 540C0 495 -19.02 486.96 0 450C27.3 396.96 44.85 403.37 92.65 360" stroke="rgba(51, 121, 194, 0.58)" stroke-width="2"></path><path d="M1260 345C1248.17 345 1240 351.79 1240 360C1240 369.29 1247.09 380 1260 380C1302.09 380 1350 368.8 1350 360C1350 351.3 1303.17 345 1260 345" stroke="rgba(51, 121, 194, 0.58)" stroke-width="2"></path><path d="M38.92 0C38.92 10.08 11.65 35.12 0 35.12C-7.81 35.12 -9.23 8.33 0 0C10.23 -9.23 38.92 -7.48 38.92 0" stroke="rgba(51, 121, 194, 0.58)" stroke-width="2"></path><path d="M324.4 180C324.4 153.04 334.68 124.14 360 124.14C406.48 124.14 468 154.43 468 180C468 204.55 408.28 224.38 360 224.38C336.48 224.38 324.4 203.16 324.4 180" stroke="rgba(51, 121, 194, 0.58)" stroke-width="2"></path><path d="M612 180C611.29 97.3 664.19 88.96 717.57 0C718.19 -1.04 718.79 0 720 0C810 0 810 0 900 0C911.74 0 923.48 -10.16 923.48 0C923.48 70.84 914.65 81.95 900 162C898.18 171.95 898.84 174.35 890.53 180C808.84 235.61 799.52 284.52 720 284.52C660.25 284.52 612.51 239.56 612 180" stroke="rgba(51, 121, 194, 0.58)" stroke-width="2"></path><path d="M1187.23 180C1173.89 99.34 1188.82 73.33 1218.46 0C1225.2 -16.67 1239.23 0 1260 0C1350 0 1395 -45 1440 0C1485 45 1440 90 1440 180C1440 216 1465.71 241.82 1440 252C1375.71 277.45 1340.72 274.24 1260 251.25C1214.33 238.24 1194.66 224.97 1187.23 180" stroke="rgba(51, 121, 194, 0.58)" stroke-width="2"></path><path d="M158.82 360C168.81 350.45 169.24 342.22 180 342.22C191.26 342.22 200.4 346.32 202.86 360C218.17 445.21 224.43 455.52 215.53 540C213 564.01 201.83 563.97 180 576.99C94.06 628.26 54.99 679.87 0 668.57C-35.01 661.38 0 604.29 0 540C0 527.14 -8.26 523.65 0 514.29C71.15 433.65 78.81 436.48 158.82 360" stroke="rgba(51, 121, 194, 0.58)" stroke-width="2"></path><path d="M1001.25 360C1038.37 338.05 1044 324 1080 324C1100.88 324 1097.3 342.2 1115 360C1187.3 432.7 1186.88 433.15 1260 505C1278.47 523.15 1298.18 525.23 1298.18 540C1298.18 552.14 1279.95 551.49 1260 558.81C1170.86 591.49 1171.31 614.94 1080 620C991.31 624.92 989.84 600.07 900 578.77C821.09 560.07 742.5 573.98 742.5 540C742.5 499.81 821.25 485.21 900 430.43C950.62 395.21 948.37 391.27 1001.25 360" stroke="rgba(51, 121, 194, 0.58)" stroke-width="2"></path><path d="M515.45 720C515.45 694.85 527.47 652.5 540 652.5C552.6 652.5 565.71 695.11 565.71 720C565.71 728.86 552.86 720 540 720C527.72 720 515.45 728.6 515.45 720" stroke="rgba(51, 121, 194, 0.58)" stroke-width="2"></path><path d="M1423.64 720C1423.64 708.25 1435.69 686.25 1440 686.25C1443.87 686.25 1445.51 708.63 1440 720C1437.33 725.51 1423.64 725.13 1423.64 720" stroke="rgba(51, 121, 194, 0.58)" stroke-width="2"></path></g><defs><mask id="SvgjsMask1058"><rect width="1366" height="720" fill="#ffffff"></rect></mask></defs></svg>